<svg width="101" height="30" viewBox="0 0 101 30" fill="none" xmlns="http://www.w3.org/2000/svg">
<path d="M27.53 7.632H31.562C32.442 7.632 33.242 7.712 33.962 7.872C34.698 8.016 35.322 8.272 35.834 8.64C36.346 8.992 36.738 9.464 37.01 10.056C37.282 10.648 37.418 11.392 37.418 12.288C37.402 13.28 37.234 14.088 36.914 14.712C36.594 15.32 36.202 15.816 35.738 16.2C35.274 16.568 34.738 16.84 34.13 17.016V17.064C34.194 17.128 34.29 17.248 34.418 17.424C34.562 17.584 34.682 17.728 34.778 17.856L39.41 24H37.034L32.282 17.496H29.546V24H27.53V7.632ZM35.378 12.624C35.378 11.952 35.29 11.408 35.114 10.992C34.954 10.56 34.706 10.232 34.37 10.008C34.05 9.784 33.65 9.632 33.17 9.552C32.69 9.472 32.146 9.432 31.538 9.432H29.546V15.696H31.922C32.546 15.696 33.074 15.616 33.506 15.456C33.938 15.296 34.29 15.08 34.562 14.808C34.834 14.52 35.034 14.192 35.162 13.824C35.29 13.456 35.362 13.056 35.378 12.624ZM49.7615 23.712C49.3935 23.824 49.0095 23.92 48.6095 24C48.2255 24.08 47.7935 24.152 47.3135 24.216C46.8495 24.28 46.3615 24.312 45.8495 24.312C45.0495 24.312 44.3055 24.2 43.6175 23.976C42.9295 23.752 42.3295 23.392 41.8175 22.896C41.3055 22.4 40.8975 21.76 40.5935 20.976C40.3055 20.176 40.1615 19.2 40.1615 18.048C40.1615 17.008 40.3055 16.096 40.5935 15.312C40.8815 14.512 41.2735 13.848 41.7695 13.32C42.2815 12.776 42.8735 12.368 43.5455 12.096C44.2335 11.824 44.9775 11.688 45.7775 11.688C46.5615 11.688 47.2415 11.84 47.8175 12.144C48.3935 12.448 48.8655 12.864 49.2335 13.392C49.6175 13.904 49.8975 14.512 50.0735 15.216C50.2655 15.904 50.3615 16.632 50.3615 17.4L50.0015 18.456H42.2495C42.2495 18.952 42.3135 19.448 42.4415 19.944C42.5695 20.44 42.7855 20.888 43.0895 21.288C43.4095 21.688 43.8175 22.016 44.3135 22.272C44.8255 22.512 45.4575 22.632 46.2095 22.632C46.6895 22.632 47.1295 22.608 47.5295 22.56C47.9295 22.496 48.2735 22.432 48.5615 22.368C48.8655 22.288 49.1455 22.2 49.4015 22.104L49.7615 23.712ZM48.3695 16.92C48.3695 16.808 48.3455 16.56 48.2975 16.176C48.2495 15.792 48.1375 15.392 47.9615 14.976C47.7855 14.56 47.5135 14.192 47.1455 13.872C46.7775 13.536 46.2895 13.368 45.6815 13.368C45.0095 13.368 44.4575 13.512 44.0255 13.8C43.5935 14.072 43.2495 14.4 42.9935 14.784C42.7375 15.168 42.5615 15.56 42.4655 15.96C42.3695 16.36 42.3215 16.68 42.3215 16.92H48.3695ZM52.9981 14.328C53.0141 13.992 52.9741 13.264 52.8781 12.144L54.6541 11.904L54.9181 13.44C55.3981 13.12 55.8701 12.84 56.3341 12.6C56.8141 12.36 57.3021 12.152 57.7981 11.976C58.2941 11.784 58.7741 11.688 59.2381 11.688C59.8941 11.688 60.4381 11.768 60.8701 11.928C61.3181 12.072 61.6781 12.32 61.9501 12.672C62.2221 13.024 62.4141 13.488 62.5261 14.064C62.6541 14.64 62.7181 15.36 62.7181 16.224V24H60.7981V16.44C60.7981 15.96 60.7901 15.536 60.7741 15.168C60.7581 14.784 60.6861 14.464 60.5581 14.208C60.4461 13.936 60.2621 13.728 60.0061 13.584C59.7661 13.44 59.4221 13.368 58.9741 13.368C58.5581 13.368 58.1181 13.464 57.6541 13.656C57.1901 13.832 56.7341 14.04 56.2861 14.28C55.8381 14.52 55.3821 14.8 54.9181 15.12V24H52.9981V14.328ZM68.9071 8.328V11.928H72.3871V13.488H68.9071V19.896C68.9071 20.424 68.9151 20.864 68.9311 21.216C68.9631 21.568 69.0191 21.848 69.0991 22.056C69.1791 22.264 69.2911 22.416 69.4351 22.512C69.5791 22.592 69.7631 22.632 69.9871 22.632C70.5951 22.616 71.2991 22.392 72.0991 21.96L72.6751 23.424C72.1471 23.776 71.6511 24.008 71.1871 24.12C70.7391 24.248 70.2911 24.312 69.8431 24.312C68.7871 24.312 68.0431 24.016 67.6111 23.424C67.1951 22.816 66.9871 21.816 66.9871 20.424V13.488H64.7791V11.928H66.9871V8.568L68.9071 8.328ZM76.1155 18.024C76.1155 19.576 76.4595 20.736 77.1475 21.504C77.8515 22.256 78.7955 22.632 79.9795 22.632C81.1475 22.632 82.0595 22.256 82.7155 21.504C83.3715 20.752 83.6995 19.624 83.6995 18.12C83.6995 16.52 83.3475 15.328 82.6435 14.544C81.9555 13.76 81.0115 13.368 79.8115 13.368C78.6115 13.368 77.6915 13.76 77.0515 14.544C76.4275 15.312 76.1155 16.472 76.1155 18.024ZM74.0755 18C74.0755 16.784 74.2675 15.776 74.6515 14.976C75.0355 14.16 75.5235 13.512 76.1155 13.032C76.7075 12.536 77.3395 12.192 78.0115 12C78.6995 11.792 79.3475 11.688 79.9555 11.688C80.5315 11.688 81.1555 11.784 81.8275 11.976C82.5155 12.152 83.1475 12.48 83.7235 12.96C84.2995 13.424 84.7795 14.056 85.1635 14.856C85.5475 15.64 85.7395 16.64 85.7395 17.856C85.7395 19.12 85.5395 20.168 85.1395 21C84.7555 21.832 84.2675 22.496 83.6755 22.992C83.0835 23.472 82.4435 23.808 81.7555 24C81.0675 24.208 80.4275 24.312 79.8355 24.312C79.2275 24.312 78.5875 24.216 77.9155 24.024C77.2435 23.832 76.6195 23.504 76.0435 23.04C75.4835 22.56 75.0115 21.912 74.6275 21.096C74.2595 20.28 74.0755 19.248 74.0755 18ZM89.8968 18.024C89.8968 19.576 90.2408 20.736 90.9288 21.504C91.6328 22.256 92.5768 22.632 93.7608 22.632C94.9288 22.632 95.8408 22.256 96.4968 21.504C97.1528 20.752 97.4808 19.624 97.4808 18.12C97.4808 16.52 97.1288 15.328 96.4248 14.544C95.7368 13.76 94.7928 13.368 93.5928 13.368C92.3928 13.368 91.4728 13.76 90.8328 14.544C90.2088 15.312 89.8968 16.472 89.8968 18.024ZM87.8568 18C87.8568 16.784 88.0488 15.776 88.4328 14.976C88.8168 14.16 89.3048 13.512 89.8968 13.032C90.4888 12.536 91.1208 12.192 91.7928 12C92.4808 11.792 93.1288 11.688 93.7368 11.688C94.3128 11.688 94.9368 11.784 95.6088 11.976C96.2968 12.152 96.9288 12.48 97.5048 12.96C98.0808 13.424 98.5608 14.056 98.9448 14.856C99.3288 15.64 99.5208 16.64 99.5208 17.856C99.5208 19.12 99.3208 20.168 98.9208 21C98.5368 21.832 98.0488 22.496 97.4568 22.992C96.8648 23.472 96.2248 23.808 95.5368 24C94.8488 24.208 94.2088 24.312 93.6168 24.312C93.0088 24.312 92.3688 24.216 91.6968 24.024C91.0248 23.832 90.4008 23.504 89.8248 23.04C89.2648 22.56 88.7928 21.912 88.4088 21.096C88.0408 20.28 87.8568 19.248 87.8568 18Z" fill="#FF7A00"/>
<path d="M12 11L17 6L12 1" stroke="#FF7A00" stroke-width="2" stroke-linecap="round" stroke-linejoin="round"/>
<path d="M1 17V10C1 8.93913 1.42143 7.92172 2.17157 7.17157C2.92172 6.42143 3.93913 6 5 6H17" stroke="#FF7A00" stroke-width="2" stroke-linecap="round" stroke-linejoin="round"/>
<path d="M6 19L1 24L6 29" stroke="#FF7A00" stroke-width="2" stroke-linecap="round" stroke-linejoin="round"/>
<path d="M17 13V20C17 21.0609 16.5786 22.0783 15.8284 22.8284C15.0783 23.5786 14.0609 24 13 24H1" stroke="#FF7A00" stroke-width="2" stroke-linecap="round" stroke-linejoin="round"/>
</svg>
